<svg id="visual" viewBox="0 0 960 540" width="960" height="540" xmlns="http://www.w3.org/2000/svg" xmlns:xlink="http://www.w3.org/1999/xlink" version="1.1"><rect x="0" y="0" width="960" height="540" fill="#001122"></rect><path d="M0 353L137 351L274 344L411 367L549 325L686 324L823 363L960 318L960 541L823 541L686 541L549 541L411 541L274 541L137 541L0 541Z" fill="#009473"></path><path d="M0 373L137 393L274 415L411 424L549 414L686 369L823 386L960 400L960 541L823 541L686 541L549 541L411 541L274 541L137 541L0 541Z" fill="#7ba165"></path><path d="M0 426L137 456L274 411L411 435L549 420L686 443L823 404L960 433L960 541L823 541L686 541L549 541L411 541L274 541L137 541L0 541Z" fill="#b9aa75"></path><path d="M0 485L137 480L274 446L411 465L549 444L686 445L823 441L960 460L960 541L823 541L686 541L549 541L411 541L274 541L137 541L0 541Z" fill="#e3b69c"></path><path d="M0 505L137 474L274 511L411 507L549 497L686 485L823 492L960 512L960 541L823 541L686 541L549 541L411 541L274 541L137 541L0 541Z" fill="#f7caca"></path></svg>