<svg id="visual" viewBox="0 0 960 540" width="960" height="540" xmlns="http://www.w3.org/2000/svg" xmlns:xlink="http://www.w3.org/1999/xlink" version="1.1"><rect x="0" y="0" width="960" height="540" fill="#001220"></rect><path d="M0 324L22.8 332.3C45.7 340.7 91.3 357.3 137 369.3C182.7 381.3 228.3 388.7 274 392.2C319.7 395.7 365.3 395.3 411.2 384.2C457 373 503 351 548.8 348.5C594.7 346 640.3 363 686 368.5C731.7 374 777.3 368 823 362.3C868.7 356.7 914.3 351.3 937.2 348.7L960 346L960 541L937.2 541C914.3 541 868.7 541 823 541C777.3 541 731.7 541 686 541C640.3 541 594.7 541 548.8 541C503 541 457 541 411.2 541C365.3 541 319.7 541 274 541C228.3 541 182.7 541 137 541C91.3 541 45.7 541 22.8 541L0 541Z" fill="#eb2415"></path><path d="M0 427L22.8 425.5C45.7 424 91.3 421 137 412.2C182.7 403.3 228.3 388.7 274 378.3C319.7 368 365.3 362 411.2 368.7C457 375.3 503 394.7 548.8 400.2C594.7 405.7 640.3 397.3 686 393.8C731.7 390.3 777.3 391.7 823 393.5C868.7 395.3 914.3 397.7 937.2 398.8L960 400L960 541L937.2 541C914.3 541 868.7 541 823 541C777.3 541 731.7 541 686 541C640.3 541 594.7 541 548.8 541C503 541 457 541 411.2 541C365.3 541 319.7 541 274 541C228.3 541 182.7 541 137 541C91.3 541 45.7 541 22.8 541L0 541Z" fill="#e81132"></path><path d="M0 426L22.8 423.3C45.7 420.7 91.3 415.3 137 418.8C182.7 422.3 228.3 434.7 274 438C319.7 441.3 365.3 435.7 411.2 435.7C457 435.7 503 441.3 548.8 443.2C594.7 445 640.3 443 686 435.8C731.7 428.7 777.3 416.3 823 408.3C868.7 400.3 914.3 396.7 937.2 394.8L960 393L960 541L937.2 541C914.3 541 868.7 541 823 541C777.3 541 731.7 541 686 541C640.3 541 594.7 541 548.8 541C503 541 457 541 411.2 541C365.3 541 319.7 541 274 541C228.3 541 182.7 541 137 541C91.3 541 45.7 541 22.8 541L0 541Z" fill="#e00947"></path><path d="M0 471L22.8 470.3C45.7 469.7 91.3 468.3 137 465.2C182.7 462 228.3 457 274 454.8C319.7 452.7 365.3 453.3 411.2 454.8C457 456.3 503 458.7 548.8 459.3C594.7 460 640.3 459 686 462.7C731.7 466.3 777.3 474.7 823 473.3C868.7 472 914.3 461 937.2 455.5L960 450L960 541L937.2 541C914.3 541 868.7 541 823 541C777.3 541 731.7 541 686 541C640.3 541 594.7 541 548.8 541C503 541 457 541 411.2 541C365.3 541 319.7 541 274 541C228.3 541 182.7 541 137 541C91.3 541 45.7 541 22.8 541L0 541Z" fill="#d51459"></path><path d="M0 494L22.8 497.7C45.7 501.3 91.3 508.7 137 506C182.7 503.3 228.3 490.7 274 490.3C319.7 490 365.3 502 411.2 503.5C457 505 503 496 548.8 489.8C594.7 483.7 640.3 480.3 686 484C731.7 487.7 777.3 498.3 823 501.3C868.7 504.3 914.3 499.7 937.2 497.3L960 495L960 541L937.2 541C914.3 541 868.7 541 823 541C777.3 541 731.7 541 686 541C640.3 541 594.7 541 548.8 541C503 541 457 541 411.2 541C365.3 541 319.7 541 274 541C228.3 541 182.7 541 137 541C91.3 541 45.7 541 22.8 541L0 541Z" fill="#c62368"></path></svg>