<svg id="visual" viewBox="0 0 900 600" width="900" height="600" xmlns="http://www.w3.org/2000/svg" xmlns:xlink="http://www.w3.org/1999/xlink" version="1.1"><rect x="0" y="0" width="900" height="600" fill="#002233"></rect><path d="M755 600L741.5 585.7C728 571.3 701 542.7 675 514.2C649 485.7 624 457.3 618.3 428.8C612.7 400.3 626.3 371.7 625.2 343C624 314.3 608 285.7 630.3 257C652.7 228.3 713.3 199.7 729.3 171.2C745.3 142.7 716.7 114.3 688.8 85.8C661 57.3 634 28.7 620.5 14.3L607 0L900 0L900 14.3C900 28.7 900 57.3 900 85.8C900 114.3 900 142.7 900 171.2C900 199.7 900 228.3 900 257C900 285.7 900 314.3 900 343C900 371.7 900 400.3 900 428.8C900 457.3 900 485.7 900 514.2C900 542.7 900 571.3 900 585.7L900 600Z" fill="#DB8CF2" strokeLineCap="round" strokeLineJoin="miter"></path></svg>