<svg id="visual" viewBox="0 0 960 540" width="960" height="540" xmlns="http://www.w3.org/2000/svg" xmlns:xlink="http://www.w3.org/1999/xlink" version="1.1"><rect x="0" y="0" width="960" height="540" fill="#002233"></rect><path d="M395 0L395 12.8C395 25.7 395 51.3 369.3 77C343.7 102.7 292.3 128.3 280.5 154C268.7 179.7 296.3 205.3 293.5 231.2C290.7 257 257.3 283 234 308.8C210.7 334.7 197.3 360.3 206.5 386C215.7 411.7 247.3 437.3 246.5 463C245.7 488.7 212.3 514.3 195.7 527.2L179 540L0 540L0 527.2C0 514.3 0 488.7 0 463C0 437.3 0 411.7 0 386C0 360.3 0 334.7 0 308.8C0 283 0 257 0 231.2C0 205.3 0 179.7 0 154C0 128.3 0 102.7 0 77C0 51.3 0 25.7 0 12.8L0 0Z" fill="#6600FF" stroke-linecap="round" stroke-linejoin="miter"></path></svg>